<svg width="28" height="20" viewBox="0 0 28 20" fill="none" xmlns="http://www.w3.org/2000/svg">
<g id="Frame" clip-path="url(#clip0_1_16697)">
<path id="Vector" d="M22.8892 3.73584H6.66699C5.56242 3.73584 4.66699 4.63127 4.66699 5.73584V15.7358C4.66699 16.8404 5.56242 17.7358 6.66699 17.7358H22.8892C23.9938 17.7358 24.8892 16.8404 24.8892 15.7358V5.73584C24.8892 4.63127 23.9938 3.73584 22.8892 3.73584Z" fill="white"/>
<path id="Vector_2" d="M26.4444 16.1807H1.55556C0.696448 16.1807 0 16.8771 0 17.7362C0 18.5953 0.696448 19.2918 1.55556 19.2918H26.4444C27.3036 19.2918 28 18.5953 28 17.7362C28 16.8771 27.3036 16.1807 26.4444 16.1807Z" fill="white"/>
<path id="Vector_3" d="M23.8891 17.2917C23.8891 17.8439 23.4414 18.2916 22.8891 18.2916H15.815H5.11133C4.55904 18.2916 4.11133 17.8439 4.11133 17.2916V2.625C4.11133 2.07272 4.55904 1.625 5.11133 1.625H22.8891C23.4414 1.625 23.8891 2.07272 23.8891 2.625V17.2917Z" fill="#1A1A1A" stroke="white" stroke-width="2"/>
</g>
<defs>
<clipPath id="clip0_1_16697">
<rect width="28" height="20" fill="white"/>
</clipPath>
</defs>
</svg>
