<svg width="9" height="9" viewBox="0 0 9 9" fill="none" xmlns="http://www.w3.org/2000/svg">
<g id="Frame" clip-path="url(#clip0_1_16721)">
<path id="Vector" fill-rule="evenodd" clip-rule="evenodd" d="M1.54029 0.763306C0.798019 0.763306 0.196289 1.36503 0.196289 2.10731V7.41908C0.196289 8.16135 0.798017 8.76308 1.54029 8.76308H6.85207C7.59433 8.76308 8.19606 8.16135 8.19606 7.41908V2.10731C8.19606 1.36504 7.59434 0.763306 6.85207 0.763306H1.54029ZM7.52992 3.09658C7.52992 3.64885 7.08222 4.09655 6.52995 4.09655C5.97768 4.09655 5.52998 3.64885 5.52998 3.09658C5.52998 2.54431 5.97768 2.09661 6.52995 2.09661C7.08222 2.09661 7.52992 2.54431 7.52992 3.09658ZM7.18836 7.31986V7.4191C7.18836 7.60467 7.03793 7.7551 6.85236 7.7551H1.54058C1.35502 7.7551 1.20459 7.60467 1.20459 7.4191V5.98656C1.20459 5.89745 1.23999 5.81199 1.303 5.74897L2.81707 4.23491C3.21071 3.84126 3.84894 3.84126 4.24259 4.23491L7.08995 7.08227C7.15296 7.14528 7.18836 7.23075 7.18836 7.31986Z" fill="#F1F1EF"/>
</g>
<defs>
<clipPath id="clip0_1_16721">
<rect width="8" height="8" fill="white" transform="translate(0.196289 0.763428)"/>
</clipPath>
</defs>
</svg>
