<svg width="139" height="44" viewBox="0 0 139 44" fill="none" xmlns="http://www.w3.org/2000/svg">
<g id="Frame" clip-path="url(#clip0_1_25189)">
<g id="Group">
<path id="Vector" d="M139 0.0012207H0V43.9988H139V0.0012207Z" fill="black"/>
<g id="Group_2">
<g id="Group_3">
<path id="Vector_2" d="M132.379 23.241H125.309C125.773 21.6415 127.178 20.5912 128.84 20.5912C130.501 20.5912 131.916 21.6415 132.379 23.241ZM134.686 26.8731C134.75 26.7181 134.663 26.5856 134.498 26.5856H132.085C132.03 26.5856 131.984 26.6082 131.952 26.6632C131.32 27.6359 130.18 28.2208 128.888 28.2208C127.117 28.2208 125.646 27.0736 125.258 25.3512H134.87C134.958 25.3512 135.026 25.2865 135.035 25.196C135.068 24.9311 135.09 24.6564 135.09 24.4012C135.09 20.8691 132.389 18.2645 128.84 18.2645C125.29 18.2645 122.589 20.8918 122.589 24.4012C122.589 27.9104 125.29 30.5377 128.885 30.5377C131.605 30.5377 133.775 29.0899 134.682 26.8731" fill="#EDEDEB"/>
<path id="Vector_3" d="M122.14 30.2437C122.24 30.2437 122.327 30.1564 122.327 30.0561V28.0042C122.327 27.904 122.24 27.8168 122.14 27.8168H120.89C120.514 27.8168 120.226 27.529 120.226 27.1543V13.889C120.226 13.789 120.138 13.7017 120.038 13.7017H117.803C117.703 13.7017 117.615 13.789 117.615 13.889V27.988C117.615 29.313 118.59 30.263 119.918 30.263H122.143L122.14 30.2437Z" fill="#EDEDEB"/>
<path id="Vector_4" d="M113.407 22.9276C113.44 23.005 113.508 23.0375 113.573 23.0375H115.953C116.096 23.0375 116.196 22.9372 116.163 22.7951C115.532 20.1226 113.132 18.2678 110.091 18.2678C106.483 18.2678 103.785 20.895 103.785 24.4044C103.785 27.9136 106.483 30.5409 110.091 30.5409C113.132 30.5409 115.513 28.7086 116.154 26.0135C116.186 25.8714 116.099 25.7713 115.956 25.7713H113.576C113.498 25.7713 113.433 25.8164 113.411 25.8812C112.902 27.206 111.639 28.0656 110.091 28.0656C108.057 28.0656 106.441 26.5435 106.441 24.4012C106.441 22.2587 108.057 20.7366 110.091 20.7366C111.639 20.7366 112.935 21.5962 113.411 22.921" fill="#EDEDEB"/>
<path id="Vector_5" d="M99.8858 30.263H102.12C102.221 30.263 102.308 30.1758 102.308 30.0755V18.746C102.308 18.6458 102.221 18.5586 102.12 18.5586H99.8858C99.7855 18.5586 99.698 18.6458 99.698 18.746V30.0722C99.698 30.1726 99.7855 30.2598 99.8858 30.2598M99.6428 16.5518H102.363C102.464 16.5518 102.551 16.4646 102.551 16.3644V13.6468C102.551 13.5465 102.464 13.4593 102.363 13.4593H99.6428C99.5425 13.4593 99.4551 13.5465 99.4551 13.6468V16.3644C99.4551 16.4646 99.5425 16.5518 99.6428 16.5518Z" fill="#EDEDEB"/>
<path id="Vector_6" d="M89.1884 23.7451C89.1884 21.9581 90.3836 20.743 92.2425 20.743C94.1016 20.743 95.1639 21.9581 95.1639 23.7451V30.0689C95.1639 30.1693 95.2513 30.2565 95.3518 30.2565H97.5865C97.6868 30.2565 97.7742 30.1693 97.7742 30.0689V23.2377C97.7742 20.2583 95.8926 18.271 92.9713 18.271C91.3552 18.271 89.9851 18.8882 89.1657 20.0353V18.7428C89.1657 18.6426 89.0783 18.5553 88.9779 18.5553H86.7659C86.6655 18.5553 86.5781 18.6426 86.5781 18.7428V30.0721C86.5781 30.1725 86.6655 30.2598 86.7659 30.2598H89.0006C89.101 30.2598 89.1884 30.1725 89.1884 30.0721V23.7483V23.7451Z" fill="#EDEDEB"/>
<path id="Vector_7" d="M78.8209 20.7462C80.8353 20.7462 82.4483 22.2683 82.4483 24.4108C82.4483 26.5533 80.8321 28.0752 78.8209 28.0752C76.8097 28.0752 75.1935 26.5533 75.1935 24.4108C75.1935 22.2683 76.8097 20.7462 78.8209 20.7462ZM78.8243 30.5377C82.4093 30.5377 85.1072 27.9104 85.1072 24.4012C85.1072 20.8918 82.4093 18.2645 78.8243 18.2645C75.2389 18.2645 72.541 20.8918 72.541 24.4012C72.541 27.9104 75.2389 30.5377 78.8243 30.5377Z" fill="#EDEDEB"/>
<path id="Vector_8" d="M68.4217 24.5626C68.4217 22.4427 69.6168 21.0209 71.9615 20.9433C72.062 20.9433 72.1397 20.8659 72.1397 20.7656V18.5586C72.1397 18.4487 72.0523 18.3711 71.9422 18.3711C70.3033 18.3711 69.0533 19.1435 68.4249 20.4586V18.7492C68.4249 18.649 68.3375 18.5618 68.2372 18.5618H66.0025C65.9019 18.5618 65.8145 18.649 65.8145 18.7492V30.0722C65.8145 30.1725 65.9019 30.2598 66.0025 30.2598H68.2372C68.3375 30.2598 68.4249 30.1725 68.4249 30.0722V24.5626H68.4217Z" fill="#EDEDEB"/>
<path id="Vector_9" d="M55.3273 23.7322C55.3273 21.9451 56.5222 20.7302 58.3813 20.7302C60.2403 20.7302 61.3025 21.9451 61.3025 23.7322V30.0561C61.3025 30.1564 61.39 30.2437 61.4904 30.2437H63.7251C63.8254 30.2437 63.9129 30.1564 63.9129 30.0561V23.2248C63.9129 20.2453 62.0312 18.258 59.11 18.258C57.4939 18.258 56.1238 18.8752 55.3044 20.0224V13.889C55.3044 13.789 55.217 13.7017 55.1167 13.7017H52.9045C52.8042 13.7017 52.7168 13.789 52.7168 13.889V30.0722C52.7168 30.1726 52.8042 30.2598 52.9045 30.2598H55.1392C55.2397 30.2598 55.3273 30.1726 55.3273 30.0722V23.7483V23.7322Z" fill="#EDEDEB"/>
<path id="Vector_10" d="M48.5094 22.921C48.5416 22.9986 48.6097 23.0309 48.6746 23.0309H51.0518C51.1941 23.0309 51.2946 22.9308 51.2622 22.7886C50.6306 20.1162 48.2307 18.2612 45.1896 18.2612C41.5817 18.2612 38.8838 20.8885 38.8838 24.3978C38.8838 27.9072 41.5817 30.5343 45.1896 30.5343C48.2307 30.5343 50.6112 28.7022 51.2524 26.0071C51.2848 25.8649 51.1974 25.7647 51.055 25.7647H48.6778C48.6001 25.7647 48.5352 25.81 48.5127 25.8746C48.0041 27.1994 46.7442 28.0591 45.1928 28.0591C43.1556 28.0591 41.5429 26.5371 41.5429 24.3946C41.5429 22.2521 43.1589 20.7301 45.1928 20.7301C46.741 20.7301 48.0364 21.5897 48.5127 22.9146" fill="#EDEDEB"/>
</g>
<path id="Vector_11" d="M37.5711 21.9769C37.5711 30.4351 30.6884 37.3024 22.2113 37.3024C13.7343 37.3024 6.85156 30.4351 6.85156 21.9769C6.85156 13.5188 13.7343 6.65143 22.2113 6.65143C30.6884 6.65143 37.5711 13.5188 37.5711 21.9769Z" fill="url(#paint0_linear_1_25189)"/>
<g id="Group_4">
<path id="Vector_12" d="M22.8943 18.732C23.5668 17.6754 24.0833 16.5333 24.4318 15.3349C25.8448 18.3592 28.9178 20.4599 32.4724 20.4599V23.54C32.4625 23.54 32.4526 23.54 32.4426 23.54C27.553 23.54 23.5747 27.5152 23.5747 32.4009H20.4922V32.399C20.4922 27.9376 22.9534 24.0402 26.5912 21.9911C25.1446 21.1704 23.8852 20.057 22.8943 18.732Z" fill="#F1F1EF"/>
<path id="Vector_13" d="M19.6504 28.6185C18.2855 25.7263 15.3997 23.6857 12.0302 23.5332C11.8952 23.5377 11.7598 23.54 11.624 23.54V20.444C11.7603 20.444 11.896 20.4463 12.0312 20.4509C14.2462 20.3514 16.3153 19.4416 17.895 17.865C19.5711 16.1922 20.49 13.9649 20.49 11.5991H23.5726C23.5726 14.7888 22.3299 17.7861 20.072 20.0422C19.298 20.8156 18.4369 21.4697 17.5107 21.9956C18.9514 22.8137 20.2063 23.9224 21.1949 25.2415C20.5316 26.2784 20.0078 27.4129 19.6504 28.6185Z" fill="#F1F1EF"/>
</g>
</g>
</g>
</g>
<defs>
<linearGradient id="paint0_linear_1_25189" x1="6.84425" y1="6.55364" x2="22.3876" y2="22.278" gradientUnits="userSpaceOnUse">
<stop/>
<stop offset="1"/>
</linearGradient>
<clipPath id="clip0_1_25189">
<rect width="139" height="44" fill="white"/>
</clipPath>
</defs>
</svg>
