<svg width="17" height="22" viewBox="0 0 17 22" fill="none" xmlns="http://www.w3.org/2000/svg">
<g id="Frame" opacity="0.3" clip-path="url(#clip0_1_16703)">
<g id="Group">
<path id="Vector" d="M15.3393 15.6C15.3393 16.7366 15.3385 17.5289 15.2881 18.1458C15.2387 18.7509 15.1465 19.0986 15.0123 19.362C14.7247 19.9265 14.2658 20.3854 13.7013 20.673C13.4379 20.8072 13.0902 20.8994 12.4851 20.9488C11.8682 20.9992 11.0759 21 9.93929 21H9.79166H7.025C5.88839 21 5.09608 20.9992 4.47924 20.9488C3.87407 20.8994 3.52638 20.8072 3.26303 20.673C2.69854 20.3854 2.2396 19.9265 1.95198 19.362C1.81779 19.0986 1.72562 18.7509 1.67617 18.1458C1.62578 17.5289 1.625 16.7366 1.625 15.6V6.4C1.625 5.26339 1.62578 4.47108 1.67617 3.85424C1.72562 3.24907 1.81779 2.90138 1.95198 2.63803C2.2396 2.07354 2.69854 1.6146 3.26303 1.32698C3.52638 1.1928 3.87407 1.10062 4.47924 1.05118C5.09608 1.00078 5.88839 1 7.025 1H9.93929C11.0759 1 11.8682 1.00078 12.4851 1.05118C13.0902 1.10062 13.4379 1.1928 13.7013 1.32698C14.2658 1.6146 14.7247 2.07354 15.0123 2.63803C15.1465 2.90139 15.2387 3.24907 15.2881 3.85424C15.3385 4.47108 15.3393 5.2634 15.3393 6.4V15.6Z" fill="#101010" stroke="white" stroke-width="2"/>
<path id="Vector_2" d="M8.48256 17.2859C9.35044 17.2859 10.054 16.5824 10.054 15.7145C10.054 14.8466 9.35044 14.1431 8.48256 14.1431C7.61469 14.1431 6.91113 14.8466 6.91113 15.7145C6.91113 16.5824 7.61469 17.2859 8.48256 17.2859Z" fill="white"/>
</g>
</g>
<defs>
<clipPath id="clip0_1_16703">
<rect width="17" height="22" fill="white"/>
</clipPath>
</defs>
</svg>
