<svg xmlns="http://www.w3.org/2000/svg" xmlns:xlink="http://www.w3.org/1999/xlink" viewBox="0 0 45 46" width="45" height="46" preserveAspectRatio="xMidYMid meet" style="width: 100%; height: 100%; transform: translate3d(0px, 0px, 0px); content-visibility: visible;"><defs><clipPath id="__lottie_element_11"><rect width="145" height="46" x="0" y="0"></rect></clipPath><linearGradient id="__lottie_element_18" spreadMethod="pad" gradientUnits="userSpaceOnUse" x1="-21.010000228881836" y1="-21.134000778198242" x2="0.289000004529953" y2="0.36500000953674316"><stop offset="0%" stop-color="rgb(0,0,0)"></stop><stop offset="0%" stop-color="rgb(0,0,0)"></stop><stop offset="100%" stop-color="rgb(0,0,0)"></stop></linearGradient></defs><g clip-path="url(#__lottie_element_11)"><g transform="matrix(0.699999988079071,0,0,0.699999988079071,131.2541046142578,39.36009979248047)" opacity="1" style="display: block;"><g opacity="1" transform="matrix(1.090000033378601,0,0,1.090000033378601,-154.406005859375,-23.4060001373291)"><path fill="url(#__lottie_element_18)" fill-opacity="1" d=" M21,0 C21,0 21,0 21,0 C21,11.589900016784668 11.589900016784668,21 0,21 C0,21 0,21 0,21 C-11.589900016784668,21 -21,11.589900016784668 -21,0 C-21,0 -21,0 -21,0 C-21,-11.589900016784668 -11.589900016784668,-21 0,-21 C0,-21 0,-21 0,-21 C11.589900016784668,-21 21,-11.589900016784668 21,0z"></path></g></g><g transform="matrix(0.04833010584115982,0,0,0.04833010584115982,12.125725746154785,12.125725746154785)" opacity="1" style="display: block;"><g opacity="1" transform="matrix(1,0,0,1,320.70599365234375,265.4079895019531)"><path fill="rgb(241,241,239)" fill-opacity="1" d=" M-77.44499969482422,-111.10399627685547 C-62.93000030517578,-133.96099853515625 -51.78099822998047,-158.66799926757812 -44.2599983215332,-184.5919952392578 C-13.760000228881836,-119.16899871826172 52.569000244140625,-73.7229995727539 129.29400634765625,-73.7229995727539 C129.29400634765625,-73.7229995727539 129.29400634765625,-7.0920000076293945 129.29400634765625,-7.0920000076293945 C129.0800018310547,-7.0920000076293945 128.86500549316406,-7.0920000076293945 128.6510009765625,-7.0929999351501465 C23.110000610351562,-7.0929999351501465 -62.75899887084961,78.9010009765625 -62.75899887084961,184.5919952392578 C-62.75899887084961,184.5919952392578 -129.29400634765625,184.5919952392578 -129.29400634765625,184.5919952392578 C-129.29400634765625,184.5919952392578 -129.29400634765625,184.55099487304688 -129.29400634765625,184.55099487304688 C-129.29400634765625,88.03900146484375 -76.16899871826172,3.7269999980926514 2.3499999046325684,-40.599998474121094 C-28.87299919128418,-58.35300064086914 -56.05699920654297,-82.44000244140625 -77.44499969482422,-111.10399627685547z"></path></g><g opacity="1" transform="matrix(1,0,0,1,128.95199584960938,184.08900451660156)"><path fill="rgb(241,241,239)" fill-opacity="1" d=" M44.292999267578125,184.08900451660156 C14.831999778747559,121.52200317382812 -47.45600128173828,77.37899780273438 -120.18499755859375,74.0790023803711 C-123.0989990234375,74.1760025024414 -126.02200317382812,74.22599792480469 -128.95199584960938,74.22699737548828 C-128.95199584960938,74.22699737548828 -128.95199584960938,7.251999855041504 -128.95199584960938,7.251999855041504 C-126.01100158691406,7.251999855041504 -123.08100128173828,7.302000045776367 -120.16300201416016,7.400000095367432 C-72.35299682617188,5.248000144958496 -27.69300079345703,-14.432999610900879 6.4039998054504395,-48.53900146484375 C42.582000732421875,-84.72699737548828 62.41699981689453,-132.90899658203125 62.41699981689453,-184.08900451660156 C62.41699981689453,-184.08900451660156 128.95199584960938,-184.08900451660156 128.95199584960938,-184.08900451660156 C128.95199584960938,-115.08599853515625 102.12999725341797,-50.24700164794922 53.39400100708008,-1.440000057220459 C36.6870002746582,15.289999961853027 18.100000381469727,29.44099998474121 -1.8910000324249268,40.816001892089844 C29.20599937438965,58.51499938964844 56.29199981689453,82.5 77.62999725341797,111.03399658203125 C63.31399917602539,133.46499633789062 52.007999420166016,158.00900268554688 44.292999267578125,184.08900451660156z"></path></g></g></g></svg>