<svg width="11" height="4" viewBox="0 0 11 4" fill="none" xmlns="http://www.w3.org/2000/svg">
<g id="Frame" clip-path="url(#clip0_1_16799)">
<g id="Group" opacity="0.5">
<path id="Vector" d="M7.66211 1.40651C7.66211 1.70356 7.76044 1.98844 7.93548 2.19848C8.11051 2.40853 8.34791 2.52653 8.59543 2.52653C8.84302 2.52653 9.08035 2.40853 9.25543 2.19848C9.43043 1.98844 9.52877 1.70356 9.52877 1.40651C9.52877 1.10947 9.43043 0.824587 9.25543 0.614544C9.08035 0.4045 8.84302 0.286499 8.59543 0.286499C8.34791 0.286499 8.11051 0.4045 7.93548 0.614544C7.76044 0.824587 7.66211 1.10947 7.66211 1.40651Z" fill="#F1F1EF"/>
<path id="Vector_2" d="M3.92871 1.40651C3.92871 1.70356 4.02704 1.98844 4.20208 2.19848C4.37712 2.40853 4.61452 2.52653 4.86205 2.52653C5.10959 2.52653 5.34699 2.40853 5.52203 2.19848C5.69706 1.98844 5.7954 1.70356 5.7954 1.40651C5.7954 1.10947 5.69706 0.824587 5.52203 0.614544C5.34699 0.4045 5.10959 0.286499 4.86205 0.286499C4.61452 0.286499 4.37712 0.4045 4.20208 0.614544C4.02704 0.824587 3.92871 1.10947 3.92871 1.40651Z" fill="#F1F1EF"/>
<path id="Vector_3" d="M0.195312 1.40651C0.195312 1.70356 0.293647 1.98844 0.468682 2.19848C0.643719 2.40853 0.881119 2.52653 1.12865 2.52653C1.3762 2.52653 1.6136 2.40853 1.78863 2.19848C1.96367 1.98844 2.062 1.70356 2.062 1.40651C2.062 1.10947 1.96367 0.824587 1.78863 0.614544C1.6136 0.4045 1.3762 0.286499 1.12865 0.286499C0.881119 0.286499 0.643719 0.4045 0.468682 0.614544C0.293647 0.824587 0.195312 1.10947 0.195312 1.40651Z" fill="#F1F1EF"/>
</g>
</g>
<defs>
<clipPath id="clip0_1_16799">
<rect width="10" height="3" fill="white" transform="translate(0.196289 0.286255)"/>
</clipPath>
</defs>
</svg>
